:SAMPLES-PER-SECOND 30
:FULLY-SPECIFIED
:DEGREES
245
root  16.3389 37.9395 -2.33862 -2.3197 58.312 2.02576
RightUpLeg  18.3641 -31.7478 -20.5749
RightLeg  27.6809 -19.7352 -11.2528
RightFoot  -8.02523 -0.311751 10.7039
RightToes  5.82063e-011 0 -3.6325e-017
Spine  10.88 1.62861 2.39227
Spine1  7.73148 2.94176 -3.68062
HEad  -26.4306 15.1615 -11.802
LeftShoulder1  0.981933 -0.000101412 -21.6464
LeftArm  -10.5277 -32.4014 -40.5945
LeftForeArm  -5.61493 -56.3117 -17.5762
LeftHand  -0.013838 4.70123 -2.11251
RightShoulder  0.45839 -1.39651 15.124
RightArm  -8.22093 43.1293 27.9773
RightForeArm  -31.4367 47.7032 14.2084
RightHand  -0.162203 6.38445 -1.9355
LeftUpLeg  -21.834 40.4001 -5.9454
LeftLeg  19.7982 19.2093 7.32398
LeftFoot  0.596115 -1.22409 11.6116
LeftToes  1.68253e-010 -3.2327e-011 -2.69673e-012
246
root  17.2756 37.802 -2.19298 -1.47626 62.0165 3.61609
RightUpLeg  14.047 -23.7886 -18.1489
RightLeg  37.5242 -16.6799 -13.3445
RightFoot  -2.20906 -0.43967 4.98206
RightToes  5.82063e-011 0 -3.6325e-017
Spine  11.7089 1.88856 2.76433
Spine1  8.4246 3.47482 -4.64023
HEad  -27.2217 13.5328 -12.452
LeftShoulder1  1.04873 -0.237797 -21.6512
LeftArm  -10.6482 -32.5028 -41.6607
LeftForeArm  -5.25632 -56.062 -17.3709
LeftHand  0.00676687 3.95834 -2.42809
RightShoulder  0.453746 -1.40963 15.0535
RightArm  -9.14601 43.1941 27.5364
RightForeArm  -31.2822 47.2833 14.0057
RightHand  -0.219091 6.91316 -2.41568
LeftUpLeg  -21.2994 37.9123 -6.85263
LeftLeg  22.9377 17.9659 8.59702
LeftFoot  -1.5264 -0.980303 11.4689
LeftToes  1.68253e-010 -3.2327e-011 -2.69673e-012
247
root  18.068 37.6353 -2.00967 1.50037 65.1559 6.7981
RightUpLeg  9.27628 -15.9868 -15.9139
RightLeg  45.1829 -6.34324 -7.01439
RightFoot  -1.30385 -0.453509 5.04502
RightToes  5.82063e-011 0 -3.6325e-017
Spine  12.0925 2.33699 1.75158
Spine1  8.7814 3.78974 -5.25249
HEad  -26.9162 13.1205 -12.3722
LeftShoulder1  1.03584 -0.153256 -21.9629
LeftArm  -10.813 -31.8905 -41.5556
LeftForeArm  -4.95144 -56.1771 -17.4264
LeftHand  -0.0104909 4.33458 -1.97856
RightShoulder  0.529703 -1.02593 14.6657
RightArm  -9.0092 43.4926 28.3129
RightForeArm  -31.2685 46.3325 13.5663
RightHand  -0.250365 7.2426 -2.65562
LeftUpLeg  -20.9646 35.7497 -8.07287
LeftLeg  25.3499 17.0757 8.95243
LeftFoot  -3.64329 -0.72021 11.0052
LeftToes  1.68253e-010 -3.2327e-011 -2.69673e-012
248
root  18.7729 37.5517 -1.71454 4.59735 69.7413 10.0588
RightUpLeg  6.10661 -11.839 -14.0448
RightLeg  51.5547 1.10305 0.979569
RightFoot  -1.97555 -0.634437 7.63818
RightToes  5.82063e-011 0 -3.6325e-017
Spine  12.4333 2.25779 0.667166
Spine1  9.37663 3.35297 -5.07391
HEad  -26.668 12.5259 -11.747
LeftShoulder1  0.985953 0.0306353 -22.0294
LeftArm  -11.0814 -31.6446 -41.5695
LeftForeArm  -4.69616 -56.0512 -17.318
LeftHand  -0.00166608 3.86116 -3.12654
RightShoulder  0.541292 -1.02157 15.1505
RightArm  -8.83472 44.1952 28.9178
RightForeArm  -30.874 45.9205 13.3654
RightHand  -0.223739 7.13951 -2.42646
LeftUpLeg  -20.1083 33.4799 -8.70557
LeftLeg  26.5886 14.9536 8.34124
LeftFoot  -5.22264 -0.538099 10.6154
LeftToes  1.68253e-010 -3.2327e-011 -2.69673e-012
249
root  19.4455 37.5866 -1.35873 9.80231 75.1642 15.024
RightUpLeg  2.71746 -10.7969 -12.5624
RightLeg  57.5687 0.956702 1.06574
RightFoot  -2.95052 -0.792247 10.4721
RightToes  5.82063e-011 0 -3.6325e-017
Spine  12.7452 2.11997 -0.524141
Spine1  9.48127 2.6327 -3.92427
HEad  -26.5732 10.9928 -11.0818
LeftShoulder1  1.01477 -0.0127653 -22.5239
LeftArm  -11.1046 -31.8221 -41.5243
LeftForeArm  -5.261 -55.7036 -17.1241
LeftHand  -0.00896459 3.71965 -1.86524
RightShoulder  0.509796 -1.15141 15.0068
RightArm  -8.98154 44.0212 29.2392
RightForeArm  -30.6995 46.1308 13.4529
RightHand  -0.227504 7.68652 -2.3825
LeftUpLeg  -18.9284 29.4773 -9.11949
LeftLeg  26.5465 13.4986 7.57935
LeftFoot  -5.97004 -0.422168 9.7555
LeftToes  1.68253e-010 -3.2327e-011 -2.69673e-012
250
root  20.1628 37.7534 -0.991735 18.2214 80.3642 23.2836
RightUpLeg  -1.09213 -10.3236 -11.0216
RightLeg  62.3685 -1.32277 -3.29571
RightFoot  -2.9578 -0.665662 8.76725
RightToes  5.82063e-011 0 -3.6325e-017
Spine  13.0803 2.04007 -0.569789
Spine1  9.36546 2.32917 -3.17911
HEad  -26.1604 8.88455 -10.4173
LeftShoulder1  1.05468 -0.121904 -22.773
LeftArm  -10.7943 -32.0277 -41.8631
LeftForeArm  -4.73576 -55.7036 -17.0816
LeftHand  -0.00890581 3.8064 -2.34599
RightShoulder  0.40922 -1.61464 15.0507
RightArm  -8.80089 43.5302 28.529
RightForeArm  -30.8339 46.8008 13.7598
RightHand  -0.15375 7.4926 -1.75022
LeftUpLeg  -17.0547 25.2113 -8.90997
LeftLeg  25.5628 12.4702 6.77479
LeftFoot  -6.15394 -0.378798 9.15854
LeftToes  1.68253e-010 -3.2327e-011 -2.69673e-012
251
root  20.8923 37.9047 -0.614464 43.6267 84.2665 48.7747
RightUpLeg  -4.99534 -8.85817 -10.0252
RightLeg  65.5858 -2.54285 -6.70704
RightFoot  -4.11259 -0.481205 7.1616
RightToes  5.82063e-011 0 -3.6325e-017
Spine  12.9935 1.80683 -0.500486
Spine1  9.9003 2.12186 -3.29306
HEad  -26.2022 7.05116 -9.21324
LeftShoulder1  1.0193 -0.00966657 -22.691
LeftArm  -11.0441 -32.0526 -41.7093
LeftForeArm  -4.32403 -56.0699 -17.3004
LeftHand  -0.00918775 3.74163 -2.0804
RightShoulder  0.428305 -1.55028 15.3363
RightArm  -8.42884 43.6872 28.3483
RightForeArm  -31.3679 46.6795 13.7286
RightHand  -0.183452 7.16821 -2.04725
LeftUpLeg  -14.933 21.6413 -8.80063
LeftLeg  24.4718 11.2093 5.86368
LeftFoot  -6.42575 -0.316854 8.27166
LeftToes  1.68253e-010 -3.2327e-011 -2.69673e-012
